<svg width="82" height="82" viewBox="0 0 82 82" fill="none" xmlns="http://www.w3.org/2000/svg">
<path d="M56.4284 39.2699C57.2184 40.3033 57.2184 41.6983 56.4284 42.7299C53.9401 45.9783 47.9701 52.6666 41.0001 52.6666C34.0301 52.6666 28.0601 45.9783 25.5718 42.7299C25.1874 42.2351 24.9788 41.6264 24.9788 40.9999C24.9788 40.3734 25.1874 39.7647 25.5718 39.2699C28.0601 36.0216 34.0301 29.3333 41.0001 29.3333C47.9701 29.3333 53.9401 36.0216 56.4284 39.2699V39.2699Z" stroke="#DB8E5A" stroke-width="2.2" stroke-linecap="round" stroke-linejoin="round"/>
<path d="M58.1881 33C53.9942 28.6962 47.8488 24 41.0004 24C34.152 24 28.0067 28.6962 23.8127 33" stroke="#DB8E5A" stroke-width="2.2" stroke-linecap="round" stroke-linejoin="round"/>
<path d="M41 46C43.7614 46 46 43.7614 46 41C46 38.2386 43.7614 36 41 36C38.2386 36 36 38.2386 36 41C36 43.7614 38.2386 46 41 46Z" stroke="#DB8E5A" stroke-width="2.2" stroke-linecap="round" stroke-linejoin="round"/>
<rect x="1" y="1" width="80" height="80" rx="40" stroke="#DB8E5A" stroke-width="2"/>
</svg>