<svg width="82" height="82" viewBox="0 0 82 82" fill="none" xmlns="http://www.w3.org/2000/svg">
<path d="M33.3203 40.9551H34.252C34.5176 40.9551 34.7363 40.9082 34.9082 40.8145C35.084 40.7207 35.2129 40.5879 35.2949 40.416C35.3809 40.2441 35.4238 40.043 35.4238 39.8125C35.4238 39.6133 35.3848 39.4355 35.3066 39.2793C35.2285 39.123 35.1094 39 34.9492 38.9102C34.793 38.8164 34.5898 38.7695 34.3398 38.7695C34.1602 38.7695 33.9883 38.8066 33.8242 38.8809C33.6641 38.9512 33.5332 39.0547 33.4316 39.1914C33.3301 39.3242 33.2793 39.4844 33.2793 39.6719H31.4453C31.4453 39.1953 31.5742 38.7832 31.832 38.4355C32.0938 38.0879 32.4395 37.8203 32.8691 37.6328C33.3027 37.4414 33.7754 37.3457 34.2871 37.3457C34.877 37.3457 35.3945 37.4395 35.8398 37.627C36.2891 37.8105 36.6367 38.084 36.8828 38.4473C37.1328 38.8066 37.2578 39.252 37.2578 39.7832C37.2578 40.0605 37.1914 40.3281 37.0586 40.5859C36.9297 40.8398 36.7441 41.0664 36.502 41.2656C36.2637 41.4609 35.9785 41.6172 35.6465 41.7344C35.3184 41.8477 34.9531 41.9043 34.5508 41.9043H33.3203V40.9551ZM33.3203 42.332V41.4004H34.5508C34.9961 41.4004 35.3945 41.4512 35.7461 41.5527C36.0977 41.6543 36.3965 41.8008 36.6426 41.9922C36.8887 42.1836 37.0762 42.416 37.2051 42.6895C37.334 42.9629 37.3984 43.2676 37.3984 43.6035C37.3984 44.002 37.3203 44.3574 37.1641 44.6699C37.0078 44.9824 36.7891 45.2461 36.5078 45.4609C36.2266 45.6758 35.8965 45.8398 35.5176 45.9531C35.1387 46.0625 34.7285 46.1172 34.2871 46.1172C33.9316 46.1172 33.5781 46.0684 33.2266 45.9707C32.875 45.873 32.5566 45.7246 32.2715 45.5254C31.9863 45.3223 31.7578 45.0664 31.5859 44.7578C31.4141 44.4453 31.3281 44.0742 31.3281 43.6445H33.1621C33.1621 43.8438 33.2129 44.0234 33.3145 44.1836C33.4199 44.3398 33.5625 44.4648 33.7422 44.5586C33.9258 44.6484 34.125 44.6934 34.3398 44.6934C34.5977 44.6934 34.8164 44.6465 34.9961 44.5527C35.1797 44.4551 35.3184 44.3223 35.4121 44.1543C35.5098 43.9863 35.5586 43.793 35.5586 43.5742C35.5586 43.2773 35.5059 43.0391 35.4004 42.8594C35.2988 42.6758 35.1504 42.543 34.9551 42.4609C34.7598 42.375 34.5254 42.332 34.252 42.332H33.3203ZM42.8828 37.3633H43.1641V38.8164H43.0586C42.6484 38.8164 42.2734 38.875 41.9336 38.9922C41.5977 39.1094 41.3066 39.2832 41.0605 39.5137C40.8145 39.7402 40.625 40.0215 40.4922 40.3574C40.3633 40.6895 40.2988 41.0723 40.2988 41.5059V42.959C40.2988 43.252 40.3242 43.5078 40.375 43.7266C40.4297 43.9414 40.5078 44.1211 40.6094 44.2656C40.7148 44.4062 40.8418 44.5137 40.9902 44.5879C41.1387 44.6582 41.3066 44.6934 41.4941 44.6934C41.6621 44.6934 41.8164 44.6562 41.957 44.582C42.0977 44.5078 42.2188 44.4023 42.3203 44.2656C42.4219 44.1289 42.5 43.9707 42.5547 43.791C42.6094 43.6074 42.6367 43.4082 42.6367 43.1934C42.6367 42.9668 42.6074 42.7617 42.5488 42.5781C42.4941 42.3906 42.4141 42.2305 42.3086 42.0977C42.207 41.9648 42.082 41.8633 41.9336 41.793C41.7852 41.7188 41.6211 41.6816 41.4414 41.6816C41.1836 41.6816 40.9609 41.7402 40.7734 41.8574C40.5859 41.9746 40.4414 42.125 40.3398 42.3086C40.2383 42.4922 40.1855 42.6797 40.1816 42.8711L39.6953 42.4668C39.6953 42.2012 39.748 41.9395 39.8535 41.6816C39.9629 41.4199 40.1172 41.1836 40.3164 40.9727C40.5156 40.7578 40.7598 40.5879 41.0488 40.4629C41.3418 40.334 41.6758 40.2695 42.0508 40.2695C42.4453 40.2695 42.793 40.3457 43.0938 40.498C43.3945 40.6465 43.6465 40.8535 43.8496 41.1191C44.0566 41.3848 44.2109 41.6953 44.3125 42.0508C44.418 42.4023 44.4707 42.7793 44.4707 43.1816C44.4707 43.5957 44.3984 43.9824 44.2539 44.3418C44.1133 44.6973 43.9141 45.0078 43.6562 45.2734C43.3984 45.5391 43.0898 45.7461 42.7305 45.8945C42.375 46.043 41.9785 46.1172 41.541 46.1172C41.0879 46.1172 40.6738 46.0371 40.2988 45.877C39.9277 45.7168 39.6035 45.4883 39.3262 45.1914C39.0527 44.8906 38.8398 44.5312 38.6875 44.1133C38.5391 43.6953 38.4648 43.2266 38.4648 42.707V42.0215C38.4648 41.3105 38.5742 40.6699 38.793 40.0996C39.0156 39.5293 39.3242 39.041 39.7188 38.6348C40.1172 38.2246 40.5859 37.9102 41.125 37.6914C41.6641 37.4727 42.25 37.3633 42.8828 37.3633ZM47.043 42.1562L45.5898 41.8105L46.0879 37.4688H50.9746V38.916H47.5879L47.3828 40.7148C47.4883 40.6523 47.6543 40.584 47.8809 40.5098C48.1074 40.4316 48.3613 40.3926 48.6426 40.3926C49.0605 40.3926 49.4316 40.457 49.7559 40.5859C50.0801 40.7148 50.3535 40.9023 50.5762 41.1484C50.8027 41.3906 50.9727 41.6895 51.0859 42.0449C51.2031 42.4004 51.2617 42.8047 51.2617 43.2578C51.2617 43.6328 51.2031 43.9922 51.0859 44.3359C50.9688 44.6758 50.7891 44.9805 50.5469 45.25C50.3086 45.5156 50.0059 45.7266 49.6387 45.8828C49.2715 46.0391 48.8398 46.1172 48.3438 46.1172C47.9688 46.1172 47.6055 46.0605 47.2539 45.9473C46.9023 45.834 46.5859 45.6699 46.3047 45.4551C46.0273 45.2363 45.8066 44.9707 45.6426 44.6582C45.4824 44.3457 45.4004 43.9941 45.3965 43.6035H47.2246C47.2441 43.8301 47.3008 44.0254 47.3945 44.1895C47.4883 44.3496 47.6152 44.4746 47.7754 44.5645C47.9355 44.6504 48.1211 44.6934 48.332 44.6934C48.5352 44.6934 48.707 44.6543 48.8477 44.5762C48.9883 44.4941 49.0996 44.3828 49.1816 44.2422C49.2676 44.1016 49.3301 43.9375 49.3691 43.75C49.4082 43.5625 49.4277 43.3613 49.4277 43.1465C49.4277 42.9238 49.4023 42.7246 49.3516 42.5488C49.3008 42.3691 49.2227 42.2168 49.1172 42.0918C49.0117 41.9629 48.877 41.8652 48.7129 41.7988C48.5527 41.7285 48.3594 41.6934 48.1328 41.6934C47.8359 41.6934 47.6035 41.7422 47.4355 41.8398C47.2676 41.9375 47.1367 42.043 47.043 42.1562Z" fill="#DB8E5A"/>
<path d="M31.6774 28H28C25.7909 28 24 29.7909 24 32V49C24 51.2091 25.7909 53 28 53H54C56.2091 53 58 51.2091 58 49V32C58 29.7909 56.2091 28 54 28H50.3226M37.1613 28H44.8387" stroke="#DB8E5A" stroke-width="2.2"/>
<rect x="32.1" y="26.1" width="4.8" height="6.8" rx="2.4" stroke="#DB8E5A" stroke-width="2.2"/>
<rect x="45.1" y="26.1" width="4.8" height="6.8" rx="2.4" stroke="#DB8E5A" stroke-width="2.2"/>
<rect x="1" y="1" width="80" height="80" rx="40" stroke="#DB8E5A" stroke-width="2"/>
</svg>